mtllib cylinder .mtl

o obj1
v 49.0393 -100 -9.75452
v 50 -100 0
v 0 -100 0
v 49.0393 -50 -9.75452
v 50 -50 0
v 49.0393 0 -9.75452
v 50 0 0
v 49.0393 50 -9.75452
v 50 50 0
v 49.0393 100 -9.75452
v 50 100 0
v 0 100 0
v 46.194 -100 -19.1342
v 46.194 -50 -19.1342
v 46.194 0 -19.1342
v 46.194 50 -19.1342
v 46.194 100 -19.1342
v 41.5735 -100 -27.7785
v 41.5735 -50 -27.7785
v 41.5735 0 -27.7785
v 41.5735 50 -27.7785
v 41.5735 100 -27.7785
v 35.3553 -100 -35.3553
v 35.3553 -50 -35.3553
v 35.3553 0 -35.3553
v 35.3553 50 -35.3553
v 35.3553 100 -35.3553
v 27.7785 -100 -41.5735
v 27.7785 -50 -41.5735
v 27.7785 0 -41.5735
v 27.7785 50 -41.5735
v 27.7785 100 -41.5735
v 19.1342 -100 -46.194
v 19.1342 -50 -46.194
v 19.1342 0 -46.194
v 19.1342 50 -46.194
v 19.1342 100 -46.194
v 9.75452 -100 -49.0393
v 9.75452 -50 -49.0393
v 9.75452 0 -49.0393
v 9.75452 50 -49.0393
v 9.75452 100 -49.0393
v 0 -100 -50
v 0 -50 -50
v 0 0 -50
v 0 50 -50
v 0 100 -50
v -9.75452 -100 -49.0393
v -9.75452 -50 -49.0393
v -9.75452 0 -49.0393
v -9.75452 50 -49.0393
v -9.75452 100 -49.0393
v -19.1342 -100 -46.194
v -19.1342 -50 -46.194
v -19.1342 0 -46.194
v -19.1342 50 -46.194
v -19.1342 100 -46.194
v -27.7785 -100 -41.5735
v -27.7785 -50 -41.5735
v -27.7785 0 -41.5735
v -27.7785 50 -41.5735
v -27.7785 100 -41.5735
v -35.3553 -100 -35.3553
v -35.3553 -50 -35.3553
v -35.3553 0 -35.3553
v -35.3553 50 -35.3553
v -35.3553 100 -35.3553
v -41.5735 -100 -27.7785
v -41.5735 -50 -27.7785
v -41.5735 0 -27.7785
v -41.5735 50 -27.7785
v -41.5735 100 -27.7785
v -46.194 -100 -19.1342
v -46.194 -50 -19.1342
v -46.194 0 -19.1342
v -46.194 50 -19.1342
v -46.194 100 -19.1342
v -49.0393 -100 -9.75452
v -49.0393 -50 -9.75452
v -49.0393 0 -9.75452
v -49.0393 50 -9.75452
v -49.0393 100 -9.75452
v -50 -100 -0
v -50 -50 -0
v -50 0 -0
v -50 50 -0
v -50 100 -0
v -49.0393 -100 9.75452
v -49.0393 -50 9.75452
v -49.0393 0 9.75452
v -49.0393 50 9.75452
v -49.0393 100 9.75452
v -46.194 -100 19.1342
v -46.194 -50 19.1342
v -46.194 0 19.1342
v -46.194 50 19.1342
v -46.194 100 19.1342
v -41.5735 -100 27.7785
v -41.5735 -50 27.7785
v -41.5735 0 27.7785
v -41.5735 50 27.7785
v -41.5735 100 27.7785
v -35.3553 -100 35.3553
v -35.3553 -50 35.3553
v -35.3553 0 35.3553
v -35.3553 50 35.3553
v -35.3553 100 35.3553
v -27.7785 -100 41.5735
v -27.7785 -50 41.5735
v -27.7785 0 41.5735
v -27.7785 50 41.5735
v -27.7785 100 41.5735
v -19.1342 -100 46.194
v -19.1342 -50 46.194
v -19.1342 0 46.194
v -19.1342 50 46.194
v -19.1342 100 46.194
v -9.75452 -100 49.0393
v -9.75452 -50 49.0393
v -9.75452 0 49.0393
v -9.75452 50 49.0393
v -9.75452 100 49.0393
v -0 -100 50
v -0 -50 50
v -0 0 50
v -0 50 50
v -0 100 50
v 9.75452 -100 49.0393
v 9.75452 -50 49.0393
v 9.75452 0 49.0393
v 9.75452 50 49.0393
v 9.75452 100 49.0393
v 19.1342 -100 46.194
v 19.1342 -50 46.194
v 19.1342 0 46.194
v 19.1342 50 46.194
v 19.1342 100 46.194
v 27.7785 -100 41.5735
v 27.7785 -50 41.5735
v 27.7785 0 41.5735
v 27.7785 50 41.5735
v 27.7785 100 41.5735
v 35.3553 -100 35.3553
v 35.3553 -50 35.3553
v 35.3553 0 35.3553
v 35.3553 50 35.3553
v 35.3553 100 35.3553
v 41.5735 -100 27.7785
v 41.5735 -50 27.7785
v 41.5735 0 27.7785
v 41.5735 50 27.7785
v 41.5735 100 27.7785
v 46.194 -100 19.1342
v 46.194 -50 19.1342
v 46.194 0 19.1342
v 46.194 50 19.1342
v 46.194 100 19.1342
v 49.0393 -100 9.75452
v 49.0393 -50 9.75452
v 49.0393 0 9.75452
v 49.0393 50 9.75452
v 49.0393 100 9.75452
vn 0 -1 -0
vn 0.98078 0 -0.19509
vn 1 0 -0
vn 0 1 -0
vn 0.92388 0 -0.38268
vn 0.83147 0 -0.55557
vn 0.70711 0 -0.70711
vn 0.55557 0 -0.83147
vn 0.38268 0 -0.92388
vn 0.19509 0 -0.98078
vn 0 0 -1
vn -0.19509 0 -0.98078
vn -0.38268 0 -0.92388
vn -0.55557 0 -0.83147
vn -0.70711 0 -0.70711
vn -0.83147 0 -0.55557
vn -0.92388 0 -0.38268
vn -0.98078 0 -0.19509
vn -1 0 -0
vn -0.98078 0 0.19509
vn -0.92388 0 0.38268
vn -0.83147 0 0.55557
vn -0.70711 0 0.70711
vn -0.55557 0 0.83147
vn -0.38268 0 0.92388
vn -0.19509 0 0.98078
vn 0 0 1
vn 0.19509 0 0.98078
vn 0.38268 0 0.92388
vn 0.55557 0 0.83147
vn 0.70711 0 0.70711
vn 0.83147 0 0.55557
vn 0.92388 0 0.38268
vn 0.98078 0 0.19509
vt 0 1
usemtl mat3
f 1/1/1 2/1/1 3/1/1
f 1/1/2 4/1/2 5/1/3
f 1/1/2 5/1/3 2/1/3
f 4/1/2 6/1/2 7/1/3
f 4/1/2 7/1/3 5/1/3
f 6/1/2 8/1/2 9/1/3
f 6/1/2 9/1/3 7/1/3
f 8/1/2 10/1/2 11/1/3
f 8/1/2 11/1/3 9/1/3
f 10/1/4 12/1/4 11/1/4
f 13/1/1 1/1/1 3/1/1
f 13/1/5 14/1/5 4/1/2
f 13/1/5 4/1/2 1/1/2
f 14/1/5 15/1/5 6/1/2
f 14/1/5 6/1/2 4/1/2
f 15/1/5 16/1/5 8/1/2
f 15/1/5 8/1/2 6/1/2
f 16/1/5 17/1/5 10/1/2
f 16/1/5 10/1/2 8/1/2
f 17/1/4 12/1/4 10/1/4
f 18/1/1 13/1/1 3/1/1
f 18/1/6 19/1/6 14/1/5
f 18/1/6 14/1/5 13/1/5
f 19/1/6 20/1/6 15/1/5
f 19/1/6 15/1/5 14/1/5
f 20/1/6 21/1/6 16/1/5
f 20/1/6 16/1/5 15/1/5
f 21/1/6 22/1/6 17/1/5
f 21/1/6 17/1/5 16/1/5
f 22/1/4 12/1/4 17/1/4
f 23/1/1 18/1/1 3/1/1
f 23/1/7 24/1/7 19/1/6
f 23/1/7 19/1/6 18/1/6
f 24/1/7 25/1/7 20/1/6
f 24/1/7 20/1/6 19/1/6
f 25/1/7 26/1/7 21/1/6
f 25/1/7 21/1/6 20/1/6
f 26/1/7 27/1/7 22/1/6
f 26/1/7 22/1/6 21/1/6
f 27/1/4 12/1/4 22/1/4
f 28/1/1 23/1/1 3/1/1
f 28/1/8 29/1/8 24/1/7
f 28/1/8 24/1/7 23/1/7
f 29/1/8 30/1/8 25/1/7
f 29/1/8 25/1/7 24/1/7
f 30/1/8 31/1/8 26/1/7
f 30/1/8 26/1/7 25/1/7
f 31/1/8 32/1/8 27/1/7
f 31/1/8 27/1/7 26/1/7
f 32/1/4 12/1/4 27/1/4
f 33/1/1 28/1/1 3/1/1
f 33/1/9 34/1/9 29/1/8
f 33/1/9 29/1/8 28/1/8
f 34/1/9 35/1/9 30/1/8
f 34/1/9 30/1/8 29/1/8
f 35/1/9 36/1/9 31/1/8
f 35/1/9 31/1/8 30/1/8
f 36/1/9 37/1/9 32/1/8
f 36/1/9 32/1/8 31/1/8
f 37/1/4 12/1/4 32/1/4
f 38/1/1 33/1/1 3/1/1
f 38/1/10 39/1/10 34/1/9
f 38/1/10 34/1/9 33/1/9
f 39/1/10 40/1/10 35/1/9
f 39/1/10 35/1/9 34/1/9
f 40/1/10 41/1/10 36/1/9
f 40/1/10 36/1/9 35/1/9
f 41/1/10 42/1/10 37/1/9
f 41/1/10 37/1/9 36/1/9
f 42/1/4 12/1/4 37/1/4
f 43/1/1 38/1/1 3/1/1
f 43/1/11 44/1/11 39/1/10
f 43/1/11 39/1/10 38/1/10
f 44/1/11 45/1/11 40/1/10
f 44/1/11 40/1/10 39/1/10
f 45/1/11 46/1/11 41/1/10
f 45/1/11 41/1/10 40/1/10
f 46/1/11 47/1/11 42/1/10
f 46/1/11 42/1/10 41/1/10
f 47/1/4 12/1/4 42/1/4
f 48/1/1 43/1/1 3/1/1
f 48/1/12 49/1/12 44/1/11
f 48/1/12 44/1/11 43/1/11
f 49/1/12 50/1/12 45/1/11
f 49/1/12 45/1/11 44/1/11
f 50/1/12 51/1/12 46/1/11
f 50/1/12 46/1/11 45/1/11
f 51/1/12 52/1/12 47/1/11
f 51/1/12 47/1/11 46/1/11
f 52/1/4 12/1/4 47/1/4
f 53/1/1 48/1/1 3/1/1
f 53/1/13 54/1/13 49/1/12
f 53/1/13 49/1/12 48/1/12
f 54/1/13 55/1/13 50/1/12
f 54/1/13 50/1/12 49/1/12
f 55/1/13 56/1/13 51/1/12
f 55/1/13 51/1/12 50/1/12
f 56/1/13 57/1/13 52/1/12
f 56/1/13 52/1/12 51/1/12
f 57/1/4 12/1/4 52/1/4
f 58/1/1 53/1/1 3/1/1
f 58/1/14 59/1/14 54/1/13
f 58/1/14 54/1/13 53/1/13
f 59/1/14 60/1/14 55/1/13
f 59/1/14 55/1/13 54/1/13
f 60/1/14 61/1/14 56/1/13
f 60/1/14 56/1/13 55/1/13
f 61/1/14 62/1/14 57/1/13
f 61/1/14 57/1/13 56/1/13
f 62/1/4 12/1/4 57/1/4
f 63/1/1 58/1/1 3/1/1
f 63/1/15 64/1/15 59/1/14
f 63/1/15 59/1/14 58/1/14
f 64/1/15 65/1/15 60/1/14
f 64/1/15 60/1/14 59/1/14
f 65/1/15 66/1/15 61/1/14
f 65/1/15 61/1/14 60/1/14
f 66/1/15 67/1/15 62/1/14
f 66/1/15 62/1/14 61/1/14
f 67/1/4 12/1/4 62/1/4
f 68/1/1 63/1/1 3/1/1
f 68/1/16 69/1/16 64/1/15
f 68/1/16 64/1/15 63/1/15
f 69/1/16 70/1/16 65/1/15
f 69/1/16 65/1/15 64/1/15
f 70/1/16 71/1/16 66/1/15
f 70/1/16 66/1/15 65/1/15
f 71/1/16 72/1/16 67/1/15
f 71/1/16 67/1/15 66/1/15
f 72/1/4 12/1/4 67/1/4
f 73/1/1 68/1/1 3/1/1
f 73/1/17 74/1/17 69/1/16
f 73/1/17 69/1/16 68/1/16
f 74/1/17 75/1/17 70/1/16
f 74/1/17 70/1/16 69/1/16
f 75/1/17 76/1/17 71/1/16
f 75/1/17 71/1/16 70/1/16
f 76/1/17 77/1/17 72/1/16
f 76/1/17 72/1/16 71/1/16
f 77/1/4 12/1/4 72/1/4
f 78/1/1 73/1/1 3/1/1
f 78/1/18 79/1/18 74/1/17
f 78/1/18 74/1/17 73/1/17
f 79/1/18 80/1/18 75/1/17
f 79/1/18 75/1/17 74/1/17
f 80/1/18 81/1/18 76/1/17
f 80/1/18 76/1/17 75/1/17
f 81/1/18 82/1/18 77/1/17
f 81/1/18 77/1/17 76/1/17
f 82/1/4 12/1/4 77/1/4
f 83/1/1 78/1/1 3/1/1
f 83/1/19 84/1/19 79/1/18
f 83/1/19 79/1/18 78/1/18
f 84/1/19 85/1/19 80/1/18
f 84/1/19 80/1/18 79/1/18
f 85/1/19 86/1/19 81/1/18
f 85/1/19 81/1/18 80/1/18
f 86/1/19 87/1/19 82/1/18
f 86/1/19 82/1/18 81/1/18
f 87/1/4 12/1/4 82/1/4
f 88/1/1 83/1/1 3/1/1
f 88/1/20 89/1/20 84/1/19
f 88/1/20 84/1/19 83/1/19
f 89/1/20 90/1/20 85/1/19
f 89/1/20 85/1/19 84/1/19
f 90/1/20 91/1/20 86/1/19
f 90/1/20 86/1/19 85/1/19
f 91/1/20 92/1/20 87/1/19
f 91/1/20 87/1/19 86/1/19
f 92/1/4 12/1/4 87/1/4
f 93/1/1 88/1/1 3/1/1
f 93/1/21 94/1/21 89/1/20
f 93/1/21 89/1/20 88/1/20
f 94/1/21 95/1/21 90/1/20
f 94/1/21 90/1/20 89/1/20
f 95/1/21 96/1/21 91/1/20
f 95/1/21 91/1/20 90/1/20
f 96/1/21 97/1/21 92/1/20
f 96/1/21 92/1/20 91/1/20
f 97/1/4 12/1/4 92/1/4
f 98/1/1 93/1/1 3/1/1
f 98/1/22 99/1/22 94/1/21
f 98/1/22 94/1/21 93/1/21
f 99/1/22 100/1/22 95/1/21
f 99/1/22 95/1/21 94/1/21
f 100/1/22 101/1/22 96/1/21
f 100/1/22 96/1/21 95/1/21
f 101/1/22 102/1/22 97/1/21
f 101/1/22 97/1/21 96/1/21
f 102/1/4 12/1/4 97/1/4
f 103/1/1 98/1/1 3/1/1
f 103/1/23 104/1/23 99/1/22
f 103/1/23 99/1/22 98/1/22
f 104/1/23 105/1/23 100/1/22
f 104/1/23 100/1/22 99/1/22
f 105/1/23 106/1/23 101/1/22
f 105/1/23 101/1/22 100/1/22
f 106/1/23 107/1/23 102/1/22
f 106/1/23 102/1/22 101/1/22
f 107/1/4 12/1/4 102/1/4
f 108/1/1 103/1/1 3/1/1
f 108/1/24 109/1/24 104/1/23
f 108/1/24 104/1/23 103/1/23
f 109/1/24 110/1/24 105/1/23
f 109/1/24 105/1/23 104/1/23
f 110/1/24 111/1/24 106/1/23
f 110/1/24 106/1/23 105/1/23
f 111/1/24 112/1/24 107/1/23
f 111/1/24 107/1/23 106/1/23
f 112/1/4 12/1/4 107/1/4
f 113/1/1 108/1/1 3/1/1
f 113/1/25 114/1/25 109/1/24
f 113/1/25 109/1/24 108/1/24
f 114/1/25 115/1/25 110/1/24
f 114/1/25 110/1/24 109/1/24
f 115/1/25 116/1/25 111/1/24
f 115/1/25 111/1/24 110/1/24
f 116/1/25 117/1/25 112/1/24
f 116/1/25 112/1/24 111/1/24
f 117/1/4 12/1/4 112/1/4
f 118/1/1 113/1/1 3/1/1
f 118/1/26 119/1/26 114/1/25
f 118/1/26 114/1/25 113/1/25
f 119/1/26 120/1/26 115/1/25
f 119/1/26 115/1/25 114/1/25
f 120/1/26 121/1/26 116/1/25
f 120/1/26 116/1/25 115/1/25
f 121/1/26 122/1/26 117/1/25
f 121/1/26 117/1/25 116/1/25
f 122/1/4 12/1/4 117/1/4
f 123/1/1 118/1/1 3/1/1
f 123/1/27 124/1/27 119/1/26
f 123/1/27 119/1/26 118/1/26
f 124/1/27 125/1/27 120/1/26
f 124/1/27 120/1/26 119/1/26
f 125/1/27 126/1/27 121/1/26
f 125/1/27 121/1/26 120/1/26
f 126/1/27 127/1/27 122/1/26
f 126/1/27 122/1/26 121/1/26
f 127/1/4 12/1/4 122/1/4
f 128/1/1 123/1/1 3/1/1
f 128/1/28 129/1/28 124/1/27
f 128/1/28 124/1/27 123/1/27
f 129/1/28 130/1/28 125/1/27
f 129/1/28 125/1/27 124/1/27
f 130/1/28 131/1/28 126/1/27
f 130/1/28 126/1/27 125/1/27
f 131/1/28 132/1/28 127/1/27
f 131/1/28 127/1/27 126/1/27
f 132/1/4 12/1/4 127/1/4
f 133/1/1 128/1/1 3/1/1
f 133/1/29 134/1/29 129/1/28
f 133/1/29 129/1/28 128/1/28
f 134/1/29 135/1/29 130/1/28
f 134/1/29 130/1/28 129/1/28
f 135/1/29 136/1/29 131/1/28
f 135/1/29 131/1/28 130/1/28
f 136/1/29 137/1/29 132/1/28
f 136/1/29 132/1/28 131/1/28
f 137/1/4 12/1/4 132/1/4
f 138/1/1 133/1/1 3/1/1
f 138/1/30 139/1/30 134/1/29
f 138/1/30 134/1/29 133/1/29
f 139/1/30 140/1/30 135/1/29
f 139/1/30 135/1/29 134/1/29
f 140/1/30 141/1/30 136/1/29
f 140/1/30 136/1/29 135/1/29
f 141/1/30 142/1/30 137/1/29
f 141/1/30 137/1/29 136/1/29
f 142/1/4 12/1/4 137/1/4
f 143/1/1 138/1/1 3/1/1
f 143/1/31 144/1/31 139/1/30
f 143/1/31 139/1/30 138/1/30
f 144/1/31 145/1/31 140/1/30
f 144/1/31 140/1/30 139/1/30
f 145/1/31 146/1/31 141/1/30
f 145/1/31 141/1/30 140/1/30
f 146/1/31 147/1/31 142/1/30
f 146/1/31 142/1/30 141/1/30
f 147/1/4 12/1/4 142/1/4
f 148/1/1 143/1/1 3/1/1
f 148/1/32 149/1/32 144/1/31
f 148/1/32 144/1/31 143/1/31
f 149/1/32 150/1/32 145/1/31
f 149/1/32 145/1/31 144/1/31
f 150/1/32 151/1/32 146/1/31
f 150/1/32 146/1/31 145/1/31
f 151/1/32 152/1/32 147/1/31
f 151/1/32 147/1/31 146/1/31
f 152/1/4 12/1/4 147/1/4
f 153/1/1 148/1/1 3/1/1
f 153/1/33 154/1/33 149/1/32
f 153/1/33 149/1/32 148/1/32
f 154/1/33 155/1/33 150/1/32
f 154/1/33 150/1/32 149/1/32
f 155/1/33 156/1/33 151/1/32
f 155/1/33 151/1/32 150/1/32
f 156/1/33 157/1/33 152/1/32
f 156/1/33 152/1/32 151/1/32
f 157/1/4 12/1/4 152/1/4
f 158/1/1 153/1/1 3/1/1
f 158/1/34 159/1/34 154/1/33
f 158/1/34 154/1/33 153/1/33
f 159/1/34 160/1/34 155/1/33
f 159/1/34 155/1/33 154/1/33
f 160/1/34 161/1/34 156/1/33
f 160/1/34 156/1/33 155/1/33
f 161/1/34 162/1/34 157/1/33
f 161/1/34 157/1/33 156/1/33
f 162/1/4 12/1/4 157/1/4
f 2/1/1 158/1/1 3/1/1
f 2/1/3 5/1/3 159/1/34
f 2/1/3 159/1/34 158/1/34
f 5/1/3 7/1/3 160/1/34
f 5/1/3 160/1/34 159/1/34
f 7/1/3 9/1/3 161/1/34
f 7/1/3 161/1/34 160/1/34
f 9/1/3 11/1/3 162/1/34
f 9/1/3 162/1/34 161/1/34
f 11/1/4 12/1/4 162/1/4
# Vertices: 162, normals: 34, texture coordinates: 1, faces: 320

